/* XPM */
static char *sidplay[] = {
/* width height num_colors chars_per_pixel */
"    64    64        8            1",
/* colors */
". c #f8fcf8",
"# c #c0c0c0",
"a c #800000",
"b c #000080",
"c c #808080",
"d c #0000f8",
"e c #000000",
"f c #f80000",
/* pixels */
"................................................................",
"................####aaaa.......bb........aaaa####...............",
"................#aaaaaaa.......bb........aaaaaaa#...............",
"..............aaaaaaacaacc.....bbcc......aacaaaaaaa.............",
"..............aaaa##ccaacc.....bbcc......aacc##aaaa.............",
"..............aaccccccaacc.....bbcc......aaccccccaacc...........",
"..............aaccccccaacc.....bbcc......aaccccccaacc...........",
"..............aacc....aacc.....bbcc......aacc....aacc...........",
"..............aacc....aacc.....bbcc......aacc....aacc...........",
"....bb........aacc....aacc.....bbcc......aacc....aacc......bb...",
"....bb........aacc....aacc.....bbcc......aacc....aacc......bb...",
"....bbcc......aacc##aaaacc..##bbbcc..##aaaacc....aacc......bbcc.",
"....bbcc......aacc##aaaacc..##bbbcc..##aaaacc....aacc......bbcc.",
"....bbcc..##aaaaccaaaaaacc..bbbbbcc..aaaaaacc##aaaacc......bbcc.",
"....bbcc..##aaaaccaaaaaacc..bbbbbcc..aaaaaacc##aaaacc......bbcc.",
"....bbcc..aaaaaacc##aa##cc..##b##cc..##aa##ccaaaaaacc......bbcc.",
"....bbcc..aaaaaacc##aa##cc..##b##cc..##aa##ccaaaaaacc......bbcc.",
"....bbcc..##aa##cc..cccccc....ccccc....cccccc##aa##cc......bbcc.",
"....bbcc..##aa##cc..cccccc....ccccc....cccccc##aa##cc......bbcc.",
"##bbbbcc....cccccc.........#ddddd..............cccccc..##bbbbcc.",
"bbbbbbcc................#ddddddddcc....................bbbbbbcc.",
"bbbbbbcc...............ddddddddddcc....................bbbbbbcc.",
"##bb##cc..............dddddddddddcc....................##bb##cc.",
"##bb##cc.............ddddddddddddcc....................##bb##cc.",
"..cccccc............ddbbddbbbccccdddddddddd..............cccccc.",
"..cccccc...........#ddbbddbccccccdddddddddd..............cccccc.",
"...................dbbddbbcccc...bbbbbbbbcccc...................",
"..................#dbbddbccccc...bbbbbbbbcccc...................",
"..................bbddbbbccc.....bbeebbcccc.....................",
"..................bbddbbcccc.....bbeebbcccc.....................",
"..................bbbbbbcc.........cccccc.......................",
"..................bbbbbbcc.........cccccc.......................",
"..................bbbbbbcc.......ffffff.........................",
"..................bbbbbbbc.......ffffff.........................",
"..................#bbbbbbc.......aaaaaaaa.......................",
"...................bbbbbbb#......aaaaaaaa.......................",
"...................#bbbbeeb#.....aaeeaaeeaa.....................",
"....................bbbbeebbb##..aaeeaaeeaa.....................",
"....aa...............beebbeebbebb..cccccccccc..............aa...",
"....aa................eebbeebbebb..cccccccccc..............aa...",
"....aacc...............beebbeebeecc........................aacc.",
"....aacc................eebbeebeecc........................aacc.",
"....aacc..................cbeeeeecc........................aacc.",
"....aacc......bbbb####........ccccc........####bbbb........aacc.",
"....aacc......bbbbbbb#........ccccc........#bbbbbbb........aacc.",
"....aacc......bbcbbbbbbb.......aa........bbbbbbbcbbcc......aacc.",
"....aacc......bbcc##bbbb.......aa........bbbb##ccbbcc......aacc.",
"##aaaacc......bbccccccbbcc.....aacc......bbccccccbbcc..##aaaacc.",
"##aaaacc......bbccccccbbcc.....aacc......bbccccccbbcc..##aaaacc.",
"aaaaaacc......bbcc....bbcc.....aacc......bbcc....bbcc..aaaaaacc.",
"aaaaaacc......bbcc....bbcc.....aacc......bbcc....bbcc..aaaaaacc.",
"##aa##cc......bbcc....bbcc.....aacc......bbcc....bbcc..##aa##cc.",
"##aa##cc......bbcc....bbcc.....aacc......bbcc....bbcc..##aa##cc.",
"..cccccc..##bbbbcc....bbcc.....aacc......bbcc##bbbbcc....cccccc.",
"..cccccc..##bbbbcc....bbcc.....aacc......bbcc##bbbbcc....cccccc.",
"..........bbbbbbcc##bbbbcc..##aaacc..##bbbbccbbbbbbcc...........",
"..........bbbbbbcc##bbbbcc..##aaacc..##bbbbccbbbbbbcc...........",
"..........##bb##ccbbbbbbcc..aaaaacc..bbbbbbcc##bb##cc...........",
"..........##bb##ccbbbbbbcc..aaaaacc..bbbbbbcc##bb##cc...........",
"............cccccc##bb##cc..##a##cc..##bb##cc..cccccc...........",
"............cccccc##bb##cc..##a##cc..##bb##cc..cccccc...........",
"....................cccccc....ccccc....cccccc...................",
"....................cccccc....ccccc....cccccc...................",
"................................................................"
};
