#define slow_width 32
#define slow_height 32
static unsigned char slow_bits[] = {
   0x00, 0x00, 0x00, 0x00, 0x00, 0x00, 0x00, 0x00, 0x00, 0x00, 0x00, 0x00,
   0x00, 0x00, 0x00, 0x00, 0x00, 0x00, 0x00, 0x00, 0x00, 0x00, 0x00, 0x00,
   0x00, 0x00, 0x00, 0x00, 0x00, 0x00, 0x00, 0x00, 0x00, 0x00, 0x00, 0x00,
   0x00, 0x00, 0x00, 0x00, 0x80, 0x7f, 0x00, 0x00, 0x80, 0x7f, 0x00, 0x00,
   0xe0, 0xff, 0x01, 0x00, 0xe0, 0xff, 0x01, 0x00, 0xe0, 0xff, 0x67, 0x00,
   0xe0, 0xff, 0x67, 0x00, 0xf8, 0xff, 0x7f, 0x00, 0xf8, 0xff, 0x7f, 0x00,
   0xe0, 0x7f, 0x06, 0x00, 0xe0, 0x7f, 0x06, 0x00, 0x60, 0xe6, 0x07, 0x00,
   0x60, 0xe6, 0x07, 0x00, 0x00, 0x00, 0x00, 0x00, 0x00, 0x00, 0x00, 0x00,
   0x00, 0x00, 0x00, 0x00, 0x00, 0x00, 0x00, 0x00, 0x00, 0x00, 0x00, 0x00,
   0x00, 0x00, 0x00, 0x00, 0x00, 0x00, 0x00, 0x00, 0x00, 0x00, 0x00, 0x00,
   0x00, 0x00, 0x00, 0x00, 0x00, 0x00, 0x00, 0x00};
